<?xml version="1.0" standalone="no"?>
<!DOCTYPE svg PUBLIC "-//W3C//DTD SVG 20010904//EN"
 "http://www.w3.org/TR/2001/REC-SVG-20010904/DTD/svg10.dtd">
<svg version="1.0" xmlns="http://www.w3.org/2000/svg"
 width="450.000000pt" height="450.000000pt" viewBox="0 0 450.000000 450.000000"
 preserveAspectRatio="xMidYMid meet">
<metadata>
Created by potrace 1.11, written by Peter Selinger 2001-2013
</metadata>
<g transform="translate(0.000000,450.000000) scale(0.100000,-0.100000)"
fill="#000000" stroke="none">
<path d="M0 2250 l0 -2250 60 0 60 0 0 677 0 678 162 162 163 163 262 0 263 0
0 183 0 182 193 193 192 192 1320 0 1320 0 188 -188 187 -187 0 -1028 0 -1027
65 0 65 0 0 2250 0 2250 -2250 0 -2250 0 0 -2250z m1895 1684 c59 -39 140
-197 194 -380 21 -70 21 -71 2 -142 -10 -40 -37 -102 -59 -139 -93 -158 -87
-226 44 -486 34 -69 32 -98 -11 -136 -100 -87 -219 6 -297 232 -29 82 -32 104
-33 207 l0 115 47 79 c89 148 87 242 -8 429 -30 59 -54 120 -54 136 0 73 111
127 175 85z m739 5 c56 -26 140 -178 193 -349 28 -92 29 -98 16 -160 -7 -35
-23 -85 -37 -110 -13 -25 -38 -72 -56 -105 -29 -56 -31 -66 -28 -140 3 -74 8
-90 66 -214 34 -74 62 -143 62 -153 0 -11 -16 -36 -35 -55 -33 -33 -39 -35
-86 -31 -43 4 -57 12 -94 48 -55 54 -108 160 -136 270 -30 119 -25 260 12 316
108 162 111 259 14 449 -32 65 -55 123 -55 141 0 71 94 124 164 93z m770 -20
c20 -17 52 -58 72 -91 42 -68 124 -297 124 -343 0 -55 -27 -132 -81 -231 -49
-92 -52 -102 -52 -170 0 -67 4 -80 68 -219 77 -165 78 -181 16 -222 -72 -48
-144 -21 -213 82 -69 104 -108 237 -108 376 0 84 3 101 25 140 80 141 88 164
83 258 -4 83 -7 93 -63 204 -76 152 -76 182 0 229 45 27 88 23 129 -13z"/>
<path d="M1730 830 l0 -830 945 0 945 0 0 830 0 830 -945 0 -945 0 0 -830z"/>
<path d="M447 1343 c-4 -3 -7 -307 -7 -675 l0 -668 265 0 265 0 0 675 0 675
-258 0 c-142 0 -262 -3 -265 -7z"/>
</g>
</svg>
